inDegrees=no
num_controls=7
num_derivatives=13
num_iterations=94
num_multipliers=7
num_parameters=0
num_slacks=7
num_states=26
objective=0.275975
objective_accelerations=0.000000
objective_balance=0.004842
objective_effort=0.071033
objective_height=0.200099
objective_ligament=0.000000
solver_duration=1209.802677
status=Solve_Succeeded
success=true
DataType=double
version=3
OpenSimVersion=4.5
endheader
time	/jointset/ground_pelvis/pelvis_tilt/value	/jointset/ground_pelvis/pelvis_tx/value	/jointset/ground_pelvis/pelvis_ty/value	/jointset/hip_l/hip_flexion_l/value	/jointset/hip_l/hip_adduction_l/value	/jointset/hip_l/hip_rotation_l/value	/jointset/back/lumbar_extension/value	/jointset/patellofemoral_l/patellar_flexion_l/value	/jointset/knee_l/knee_flexion_l/value	/jointset/knee_l/knee_adduction_l/value	/jointset/knee_l/knee_rotation_l/value	/jointset/ankle_l/ankle_angle_l/value	/jointset/subtalar_l/subtalar_angle_l/value	/jointset/ground_pelvis/pelvis_tilt/speed	/jointset/ground_pelvis/pelvis_tx/speed	/jointset/ground_pelvis/pelvis_ty/speed	/jointset/hip_l/hip_flexion_l/speed	/jointset/hip_l/hip_adduction_l/speed	/jointset/hip_l/hip_rotation_l/speed	/jointset/back/lumbar_extension/speed	/jointset/patellofemoral_l/patellar_flexion_l/speed	/jointset/knee_l/knee_flexion_l/speed	/jointset/knee_l/knee_adduction_l/speed	/jointset/knee_l/knee_rotation_l/speed	/jointset/ankle_l/ankle_angle_l/speed	/jointset/subtalar_l/subtalar_angle_l/speed	/forceset/tau_hip_flexion_l	/forceset/tau_hip_adduction_l	/forceset/tau_hip_rotation_l	/forceset/tau_knee_flexion_l	/forceset/tau_ankle_angle_l	/forceset/tau_subtalar_angle_l	/forceset/tau_lumbar_extension	lambda_cid13_p0	lambda_cid13_p1	lambda_cid13_p2	lambda_cid13_p3	lambda_cid13_p4	lambda_cid13_p5	lambda_cid14_p0	/jointset/ground_pelvis/pelvis_tilt/accel	/jointset/ground_pelvis/pelvis_tx/accel	/jointset/ground_pelvis/pelvis_ty/accel	/jointset/hip_l/hip_flexion_l/accel	/jointset/hip_l/hip_adduction_l/accel	/jointset/hip_l/hip_rotation_l/accel	/jointset/back/lumbar_extension/accel	/jointset/patellofemoral_l/patellar_flexion_l/accel	/jointset/knee_l/knee_flexion_l/accel	/jointset/knee_l/knee_adduction_l/accel	/jointset/knee_l/knee_rotation_l/accel	/jointset/ankle_l/ankle_angle_l/accel	/jointset/subtalar_l/subtalar_angle_l/accel	gamma_cid13_p0	gamma_cid13_p1	gamma_cid13_p2	gamma_cid13_p3	gamma_cid13_p4	gamma_cid13_p5	gamma_cid14_p0
0	-0.03681548332855827	0.05667412818679708	0.9203421774020182	0.3085816938045678	-0.2956336288215076	-0.3015742579182956	-0.3879492264334186	0.2499269421184952	0.2499269421184919	-0.17452222382932	-0.1744979623419222	-0.0008036623358878681	0.0004442641865183399	0	0	0	0	0	0	0	0	0	0	0	0	0	0.2310514720477165	-0.04532749197914211	0.06678146442646167	0.3136082009083886	0.2571606383820687	0.01716419184190093	-0.6035549167241535	163.1282524028825	-39.04317442920041	9.22688038016438	-507.4066110074724	999.3869683290935	-9.127407344922636	-23.24107171474333	62.69454198866084	-14.57978907203189	-17.13771750489612	299.4733347375719	102.3088844495929	145.929565619174	-114.9539866468407	525.2362995937426	525.2362995939659	381.747465802812	30.63742304473257	285.5719295230274	202.7582769813216	0.002880381151880157	0.01613461113256699	-0.0141426591329539	9.463470131235403e-05	0.008230926493634031	0.01785385167352134	0.002681010691457395
0.01	-0.03449366676304368	0.05600208340230018	0.9194250678623109	0.3228444363794333	-0.2909878959919905	-0.2960155686587761	-0.3925591935215457	0.2740443599586691	0.2740443599586768	-0.1570799924177919	-0.1739176824809434	0.01211832927322927	0.009713312632342666	0.4082749964613561	-0.1258528047370823	-0.2028761387379589	2.695387289233077	0.853981346679743	0.9282064733903137	-0.8320509583745542	4.520413591962003	4.520413591962695	3.25113592040368	0.08988470028525411	2.404569520386622	1.738931017835756	0.2360533034035521	-0.07127830638128389	0.030832144283347	0.23743092999673	0.1962415976484439	-0.05259619526644498	-0.4965064577507416	134.849799588707	-3.437269117155004	3.130476113950394	-347.8825929416133	999.8892027539426	54.22882044419772	-23.38144204528089	21.41302744862336	-10.28567640999962	-23.13451137900566	231.0657657863728	65.99697428323974	41.55123771973142	-53.83928154494058	369.4471904483365	369.4471904482945	262.1208833089395	-8.572351374011314	191.2695165149627	141.3293883281216	0.001549809124027446	0.008735596365926725	-0.007805007395764309	6.657386370127657e-05	0.0040857338838719	0.01009002363389814	0.001420059437646772
0.02	-0.02978529043815833	0.05433198052334168	0.916224807071072	0.3593599198006712	-0.2799915067944584	-0.2861178047611789	-0.4027913964158546	0.33416657400864	0.334166574008664	-0.1140615561724105	-0.1737858245959731	0.04376002672990895	0.03274544608520838	0.4773119518727302	-0.1996116188923218	-0.4566302503063225	4.450548169274043	1.270131273602453	0.8678149276114844	-1.124447161236214	7.200959241960298	7.200959241960322	5.115240966799106	-0.0896843952068167	3.743941169512572	2.752617001408272	0.2410551347594197	-0.09722912078336068	-0.005117175859774309	0.1612536590850729	0.1353225569148367	-0.1223565823747173	-0.3894579987773225	104.737516892778	34.36280176064957	-5.43251176192424	-157.2024913382004	999.4740447350127	135.4903814010584	-23.65663718534153	-5.153066221335516	-4.160990955663346	-27.31331207097707	111.4280528991497	14.7426004981863	-51.79003821465458	-7.023035544261816	157.2627112010009	157.2627112009525	104.341291001161	-23.25333611073232	72.53235527089308	57.70927012867321	0.0002192370961747341	0.001336581599286464	-0.001467355658574717	3.85130260901991e-05	-5.945872589022995e-05	0.002326195594274945	0.0001591081838361488
0.03	-0.02589736438646729	0.05216646180554717	0.9101940766457355	0.4092782900946529	-0.2665029226668255	-0.2796041345214525	-0.4135305974968041	0.4124129354388139	0.4124129354388301	-0.05795172025525654	-0.1744402882253118	0.08405608158310424	0.06308690594684234	0.2383030611892933	-0.2312631887706033	-0.7572825378024908	5.544711370701617	1.409977295794826	0.4955111038644146	-0.9423209095776207	8.360419213771749	8.360419213771351	6.026029546662705	0.06013244403197025	4.256157688164954	3.286263911367573	0.2638229112318436	-0.07837173300307398	-0.0130298192710071	0.1470381029871924	0.1388592519652725	-0.08670577549246024	-0.333315626243839	104.5825976489791	21.64445085745173	-6.529369041556351	-98.39637831729191	999.767873362315	131.3191830690057	-23.70367273428754	-42.56528412535412	-2.325310391372049	-32.63483254328403	110.1501694833003	11.17477072974199	-20.65074430272904	42.99127732743362	82.0768387413131	82.07683874127918	72.33760693532297	49.07617658168514	31.73641496381779	46.7511934345535	-9.845460175578977e-05	-0.0005436375640978681	0.00168443494449837	0.0001742527253279962	-0.001517223187338366	-0.001266523288083187	7.413856636131862e-05
